<svg width="282" height="38" viewBox="0 0 282 38" fill="none" xmlns="http://www.w3.org/2000/svg">
<path d="M0 0H263C273.493 0 282 8.50659 282 19C282 29.4934 273.493 38 263 38H0V0Z" fill="#931332"/>
<path d="M140.072 20.222H134.024V26H132.53V13.4H134.024V18.89H140.072V13.4H141.566V26H140.072V20.222ZM144.336 17.666C144.792 17.39 145.32 17.186 145.92 17.054C146.532 16.922 147.168 16.856 147.828 16.856C148.452 16.856 148.95 16.94 149.322 17.108C149.706 17.276 149.994 17.498 150.186 17.774C150.39 18.038 150.522 18.332 150.582 18.656C150.654 18.98 150.69 19.304 150.69 19.628C150.69 20.348 150.672 21.05 150.636 21.734C150.6 22.418 150.582 23.066 150.582 23.678C150.582 24.122 150.6 24.542 150.636 24.938C150.672 25.334 150.738 25.7 150.834 26.036H149.772L149.394 24.776H149.304C149.196 24.944 149.058 25.112 148.89 25.28C148.734 25.436 148.542 25.58 148.314 25.712C148.086 25.832 147.822 25.934 147.522 26.018C147.222 26.102 146.88 26.144 146.496 26.144C146.112 26.144 145.752 26.084 145.416 25.964C145.092 25.844 144.81 25.676 144.57 25.46C144.33 25.232 144.138 24.962 143.994 24.65C143.862 24.338 143.796 23.984 143.796 23.588C143.796 23.06 143.904 22.622 144.12 22.274C144.336 21.914 144.636 21.632 145.02 21.428C145.416 21.212 145.884 21.062 146.424 20.978C146.976 20.882 147.582 20.834 148.242 20.834C148.41 20.834 148.572 20.834 148.728 20.834C148.896 20.834 149.064 20.846 149.232 20.87C149.268 20.51 149.286 20.186 149.286 19.898C149.286 19.238 149.154 18.776 148.89 18.512C148.626 18.248 148.146 18.116 147.45 18.116C147.246 18.116 147.024 18.134 146.784 18.17C146.556 18.194 146.316 18.236 146.064 18.296C145.824 18.344 145.59 18.41 145.362 18.494C145.146 18.566 144.954 18.65 144.786 18.746L144.336 17.666ZM146.892 24.884C147.228 24.884 147.528 24.842 147.792 24.758C148.056 24.662 148.284 24.548 148.476 24.416C148.668 24.272 148.824 24.116 148.944 23.948C149.076 23.78 149.172 23.618 149.232 23.462V21.968C149.064 21.956 148.89 21.95 148.71 21.95C148.542 21.938 148.374 21.932 148.206 21.932C147.834 21.932 147.468 21.956 147.108 22.004C146.76 22.04 146.448 22.118 146.172 22.238C145.908 22.346 145.692 22.502 145.524 22.706C145.368 22.898 145.29 23.144 145.29 23.444C145.29 23.864 145.44 24.212 145.74 24.488C146.04 24.752 146.424 24.884 146.892 24.884ZM159.025 20.672L159.079 19.556H159.025L158.287 20.708L154.237 26H153.409V17H154.849V22.49L154.795 23.552H154.867L155.569 22.436L159.619 17H160.465V26H159.025V20.672ZM155.479 13.364C155.599 13.916 155.803 14.3 156.091 14.516C156.391 14.732 156.733 14.84 157.117 14.84C157.501 14.84 157.843 14.726 158.143 14.498C158.443 14.27 158.647 13.898 158.755 13.382L159.835 13.724C159.727 14.42 159.415 14.954 158.899 15.326C158.395 15.698 157.789 15.884 157.081 15.884C156.757 15.884 156.433 15.842 156.109 15.758C155.797 15.674 155.515 15.548 155.263 15.38C155.011 15.212 154.795 14.996 154.615 14.732C154.435 14.468 154.315 14.156 154.255 13.796L155.479 13.364ZM168.978 18.26H166.152V26H164.712V18.26H161.886V17H168.978V18.26ZM176.023 20.672L176.077 19.556H176.023L175.285 20.708L171.235 26H170.407V17H171.847V22.49L171.793 23.552H171.865L172.567 22.436L176.617 17H177.463V26H176.023V20.672Z" fill="white"/>
<path d="M110.698 25.3945C112.406 25.3941 114.064 24.8224 115.41 23.7704L119.639 28L121 26.6395L116.77 22.4099C117.823 21.0645 118.395 19.4055 118.395 17.6972C118.395 13.4532 114.942 10 110.698 10C106.453 10 103 13.4532 103 17.6972C103 21.9413 106.453 25.3945 110.698 25.3945ZM110.698 11.9243C113.882 11.9243 116.471 14.5135 116.471 17.6972C116.471 20.881 113.882 23.4702 110.698 23.4702C107.514 23.4702 104.924 20.881 104.924 17.6972C104.924 14.5135 107.514 11.9243 110.698 11.9243Z" fill="white"/>
</svg>
