<svg width="19" height="19" viewBox="0 0 18 22" fill="none" xmlns="http://www.w3.org/2000/svg">
    <path fill-rule="evenodd" clip-rule="evenodd"
          d="M16.2 0.199997H1.79998C1.48172 0.199997 1.17649 0.326425 0.951447 0.551469C0.726404 0.776512 0.599976 1.08174 0.599976 1.4V20.6C0.599976 20.9183 0.726404 21.2235 0.951447 21.4485C1.17649 21.6736 1.48172 21.8 1.79998 21.8H16.2C16.5182 21.8 16.8235 21.6736 17.0485 21.4485C17.2735 21.2235 17.4 20.9183 17.4 20.6V1.4C17.4 1.08174 17.2735 0.776512 17.0485 0.551469C16.8235 0.326425 16.5182 0.199997 16.2 0.199997ZM12.6 17H5.39998V14.6H12.6V17ZM12.6 12.2H5.39998V9.8H12.6V12.2ZM12.6 7.4H5.39998V5H12.6V7.4Z"
          fill="#9E9E9E"/>
</svg>
