<svg width="19" height="19" viewBox="0 0 24 24" fill="none" xmlns="http://www.w3.org/2000/svg">
    <path d="M8.79999 -2.06532e-06C8.05374 -0.0178471 7.31147 0.113723 6.61682 0.386968C5.92217 0.660213 5.28918 1.06962 4.75509 1.59109C4.22099 2.11257 3.79657 2.73559 3.5068 3.42351C3.21703 4.11142 3.06775 4.85034 3.06775 5.5968C3.06775 6.34325 3.21703 7.08217 3.5068 7.77009C3.79657 8.45801 4.22099 9.08103 4.75509 9.6025C5.28918 10.124 5.92217 10.5334 6.61682 10.8066C7.31147 11.0799 8.05374 11.2114 8.79999 11.1936C9.54623 11.2114 10.2885 11.0799 10.9832 10.8066C11.6778 10.5334 12.3108 10.124 12.8449 9.6025C13.379 9.08103 13.8034 8.45801 14.0932 7.77009C14.3829 7.08217 14.5322 6.34325 14.5322 5.5968C14.5322 4.85034 14.3829 4.11142 14.0932 3.42351C13.8034 2.73559 13.379 2.11257 12.8449 1.59109C12.3108 1.06962 11.6778 0.660213 10.9832 0.386968C10.2885 0.113723 9.54623 -0.0178471 8.79999 -2.06532e-06Z"
          fill="#9E9E9E"/>
    <path d="M5.6 14.3904C4.11479 14.3904 2.69041 14.9804 1.6402 16.0306C0.589998 17.0808 0 18.5052 0 19.9904L0 23.9856H17.6V19.9904C17.6 18.5052 17.01 17.0808 15.9598 16.0306C14.9096 14.9804 13.4852 14.3904 12 14.3904H5.6Z"
          fill="#9E9E9E"/>
    <path d="M20 16H19.2V24H24V20C24 18.9391 23.5786 17.9217 22.8284 17.1716C22.0783 16.4214 21.0609 16 20 16Z"
          fill="#9E9E9E"/>
    <path d="M18.4 6.39999C17.3392 6.39999 16.3217 6.82142 15.5716 7.57157C14.8215 8.32171 14.4 9.33913 14.4 10.4C14.4 11.4609 14.8215 12.4783 15.5716 13.2284C16.3217 13.9786 17.3392 14.4 18.4 14.4C19.4609 14.4 20.4783 13.9786 21.2285 13.2284C21.9786 12.4783 22.4 11.4609 22.4 10.4C22.4 9.33913 21.9786 8.32171 21.2285 7.57157C20.4783 6.82142 19.4609 6.39999 18.4 6.39999Z"
          fill="#9E9E9E"/>
</svg>
