<svg width="19" height="19" viewBox="0 0 26 20" fill="none" xmlns="http://www.w3.org/2000/svg">
    <path d="M1.625 15H7.3125L6.40087 17.8067C6.31953 18.0571 6.29737 18.3239 6.33622 18.5849C6.37507 18.8459 6.47382 19.0936 6.62433 19.3078C6.77484 19.522 6.97281 19.6965 7.20193 19.8168C7.43105 19.9371 7.68477 19.9999 7.94219 20H8.125L12.1875 15.4683V4.16666H3.25L0.0511875 11.3742L0 11.6183V13.3333C0 13.7754 0.171205 14.1993 0.475951 14.5118C0.780698 14.8244 1.19402 15 1.625 15Z"
          fill="#9E9E9E"/>
    <path d="M24.375 5.00001L18.6875 5.00001L19.5991 2.19334C19.6805 1.94286 19.7026 1.67613 19.6638 1.41514C19.6249 1.15415 19.5262 0.906356 19.3757 0.692174C19.2252 0.477991 19.0272 0.303546 18.7981 0.183207C18.5689 0.0628688 18.3152 7.9844e-05 18.0578 1.12025e-05L17.875 1.12189e-05L13.8125 4.53168L13.8125 15.8333L22.75 15.8333L25.9488 8.62584L26 8.38168L26 6.66668C26 6.22465 25.8288 5.80073 25.524 5.48817C25.2193 5.17561 24.806 5.00001 24.375 5.00001Z"
          fill="#9E9E9E"/>
</svg>
