<svg width="28" height="34" viewBox="0 0 28 34" fill="none" xmlns="http://www.w3.org/2000/svg">
    <path d="M23.1953 17.9258C23.1797 15.2617 24.3867 13.2539 26.8242 11.7734C25.4609 9.82031 23.3984 8.74609 20.6797 8.53906C18.1055 8.33594 15.2891 10.0391 14.2578 10.0391C13.168 10.0391 10.6758 8.60937 8.71484 8.60937C4.66797 8.67187 0.367188 11.8359 0.367188 18.2734C0.367188 20.1758 0.714844 22.1406 1.41016 24.1641C2.33984 26.8281 5.69141 33.3555 9.1875 33.25C11.0156 33.207 12.3086 31.9531 14.6875 31.9531C16.9961 31.9531 18.1914 33.25 20.2305 33.25C23.7578 33.1992 26.7891 27.2656 27.6719 24.5937C22.9414 22.3633 23.1953 18.0625 23.1953 17.9258ZM19.0898 6.01172C21.0703 3.66016 20.8906 1.51953 20.832 0.75C19.082 0.851562 17.0586 1.94141 15.9062 3.28125C14.6367 4.71875 13.8906 6.49609 14.0508 8.5C15.9414 8.64453 17.668 7.67187 19.0898 6.01172Z"
          fill="#9E9E9E"/>
</svg>
