<svg width="189" height="479" viewBox="0 0 189 479" fill="none" xmlns="http://www.w3.org/2000/svg">
    <path d="M112.978 9.28796L134.077 14.9415L101.792 135.434L109.62 169.515L147.244 182.826L131.797 240.473L113.294 249.245L103.595 207.071L74.4393 236.007L65.3986 210.97L43.5636 232.176L24.707 200.067L38.8409 147.319C45.5444 122.301 75.1521 109.262 89.118 105.87L110.218 27.1244C102.865 19.9043 104.884 12.3688 112.978 9.28796Z"
          fill="#931332" fill-opacity="0.55"/>
    <path d="M153.67 20.1913L134.073 14.9403L101.767 135.508L109.616 169.513L147.244 182.826L148.859 176.798C155.562 151.78 136.441 125.684 126.042 115.764L147.142 37.0181C157.12 34.442 159.139 26.9065 153.67 20.1913Z"
          fill="#931332" fill-opacity="0.55"/>
    <path d="M0.00465123 285.528L0.00465123 332.336L0.00465123 457.546C-0.12537 464.698 2.42306 479 13.6569 479H79.1879L109.613 313.612L113.904 299.57L98.3011 312.442L79.968 272.656L56.9542 308.151L42.5218 285.528L28.8695 311.272L0.00465123 285.528Z"
          fill="#931332" fill-opacity="0.55"/>
    <path d="M113.899 299.57V332.336L113.899 457.546C114.029 464.698 111.481 479 100.247 479H79.1832L109.608 313.612L113.899 299.57Z"
          fill="#931332" fill-opacity="0.55"/>
</svg>
