<svg width="20" height="20" viewBox="0 0 20 20" fill="none" xmlns="http://www.w3.org/2000/svg">
    <path d="M10.0001 18.3333C14.5176 18.3333 18.3334 14.5175 18.3334 9.99999C18.3334 5.48249 14.5176 1.66666 10.0001 1.66666C5.48258 1.66666 1.66675 5.48249 1.66675 9.99999C1.66675 14.5175 5.48258 18.3333 10.0001 18.3333ZM10.0001 3.33332C13.6142 3.33332 16.6667 6.38582 16.6667 9.99999C16.6667 13.6142 13.6142 16.6667 10.0001 16.6667C6.38591 16.6667 3.33341 13.6142 3.33341 9.99999C3.33341 6.38582 6.38591 3.33332 10.0001 3.33332Z"
          fill="#9E9E9E"/>
    <path d="M9.99992 14.1667C10.7508 14.1667 12.1508 14.0267 13.0891 13.09L11.9108 11.91C11.5416 12.2792 10.8266 12.5 9.99992 12.5C8.64492 12.5 7.49992 11.355 7.49992 10C7.49992 8.64501 8.64492 7.50001 9.99992 7.50001C10.8274 7.50001 11.5424 7.72084 11.9108 8.08918L13.0891 6.91084C12.1516 5.97334 10.7508 5.83334 9.99992 5.83334C7.70242 5.83334 5.83325 7.70251 5.83325 10C5.83325 12.2975 7.70242 14.1667 9.99992 14.1667Z"
          fill="#9E9E9E"/>
</svg>
