<svg width="21" height="21" viewBox="0 0 21 21" fill="none" xmlns="http://www.w3.org/2000/svg">
    <path d="M7.22012 18.0302L15.7203 9.53L11.6829 5.49257L3.18269 13.9928C3.06567 14.1099 2.98254 14.2566 2.94213 14.4172L2 19.2129L6.79479 18.2708C6.95578 18.2305 7.10304 18.1473 7.22012 18.0302ZM18.4644 6.78594C18.8073 6.44288 19 5.97766 19 5.49257C19 5.00749 18.8073 4.54226 18.4644 4.1992L17.0137 2.74851C16.6706 2.40555 16.2054 2.21289 15.7203 2.21289C15.2352 2.21289 14.77 2.40555 14.427 2.74851L12.9763 4.1992L17.0137 8.23663L18.4644 6.78594Z"
          fill="#818181"/>
</svg>
