<svg width="215" height="222" viewBox="0 0 215 222" fill="none" xmlns="http://www.w3.org/2000/svg">
    <circle cx="107.5" cy="107.5" r="107.5" fill="#931332"/>
    <circle cx="107.5" cy="107.5" r="104.5" fill="#C4C4C4"/>
    <mask id="mask0" mask-type="alpha" maskUnits="userSpaceOnUse" x="7" y="22" width="201" height="200">
        <g clip-path="url(#clip0)">
            <path d="M163.826 165.287C137.727 155.78 129.384 147.754 129.384 130.57C129.384 120.258 137.936 113.575 140.851 104.737C143.766 95.8985 145.452 85.4346 146.854 77.8229C148.256 70.2111 148.813 67.267 149.575 59.1568C150.507 49.0351 143.731 22.9048 107.5 22.9048C71.2797 22.9048 64.4822 49.0351 65.4352 59.1568C66.1975 67.267 66.7575 70.2114 68.1561 77.8229C69.5549 85.4344 71.2248 95.8979 74.138 104.737C77.0511 113.575 85.6148 120.258 85.6148 130.57C85.6148 147.754 77.2717 155.78 51.1732 165.287C24.9799 174.816 7.97607 184.213 7.97607 190.851V221.952H207.024V190.851C207.024 184.223 190.009 174.827 163.826 165.287Z" fill="black"/>
        </g>
    </mask>
    <g mask="url(#mask0)">
        <circle cx="107.5" cy="107.5" r="104.5" fill="#424242"/>
        <circle cx="107.5" cy="107.5" r="104.5" stroke="#931332"/>
    </g>
    <defs>
        <clipPath id="clip0">
            <rect width="199.048" height="199.048" fill="white" transform="translate(7.97607 22.9048)"/>
        </clipPath>
    </defs>
</svg>

