<svg width="19" height="19" viewBox="0 0 19 19" fill="none" xmlns="http://www.w3.org/2000/svg">
    <path d="M18.5403 3.89367C18.2455 3.13173 17.8204 2.44126 17.2889 1.86092C16.757 1.27885 16.1298 0.816287 15.4415 0.498386C14.7277 0.167432 13.9622 -0.0019684 13.1894 1.7256e-05C12.1051 1.7256e-05 11.0472 0.331444 10.1279 0.957473C9.90796 1.10723 9.69903 1.27172 9.50109 1.45093C9.30315 1.27172 9.09421 1.10723 8.87428 0.957473C7.95496 0.331444 6.89708 1.7256e-05 5.81282 1.7256e-05C5.03206 1.7256e-05 4.27549 0.166958 3.56071 0.498386C2.87012 0.817538 2.24771 1.27663 1.71327 1.86092C1.18103 2.4406 0.75586 3.13123 0.461858 3.89367C0.156152 4.68664 0 5.52871 0 6.39533C0 7.21285 0.149554 8.06474 0.446463 8.93136C0.694987 9.65559 1.05128 10.4068 1.50654 11.1654C2.22792 12.3659 3.21981 13.618 4.45144 14.8872C6.49241 16.9912 8.51359 18.4446 8.59936 18.5035L9.1206 18.8766C9.35153 19.0411 9.64844 19.0411 9.87937 18.8766L10.4006 18.5035C10.4864 18.4421 12.5054 16.9912 14.5485 14.8872C15.7802 13.618 16.7721 12.3659 17.4934 11.1654C17.9487 10.4068 18.3072 9.65559 18.5535 8.93136C18.8504 8.06474 19 7.21285 19 6.39533C19.0022 5.52871 18.846 4.68664 18.5403 3.89367Z" fill="#931332"/>
</svg>
