<svg width="8" height="26" viewBox="0 0 8 26" fill="none" xmlns="http://www.w3.org/2000/svg">
<path d="M1.33333 26C0.979711 26 0.640573 25.863 0.390525 25.6192C0.140476 25.3754 0 25.0448 0 24.7V11.7C0 9.1 1.33333 6.825 2.66667 6.5V0.65C2.66667 0.477609 2.7369 0.312279 2.86193 0.190381C2.98695 0.0684821 3.15652 0 3.33333 0H4.66667C4.84348 0 5.01305 0.0684821 5.13807 0.190381C5.2631 0.312279 5.33333 0.477609 5.33333 0.65V6.5C6.66667 6.825 8 9.1 8 11.7V24.7C8 25.0448 7.85952 25.3754 7.60948 25.6192C7.35943 25.863 7.02029 26 6.66667 26H1.33333Z" fill="#931332"/>
</svg>
