<svg width="24" height="25" viewBox="0 0 24 25" fill="none" xmlns="http://www.w3.org/2000/svg">
    <path fill-rule="evenodd" clip-rule="evenodd"
          d="M14.1213 11.7331H16.8891C17.3088 11.7331 17.6386 11.3861 17.6386 10.9677C17.6386 10.5391 17.3088 10.2024 16.8891 10.2024H14.1213C13.7016 10.2024 13.3719 10.5391 13.3719 10.9677C13.3719 11.3861 13.7016 11.7331 14.1213 11.7331ZM20.1766 6.42749C20.7861 6.42749 21.1858 6.6418 21.5855 7.11123C21.9852 7.58067 22.0551 8.2542 21.9652 8.86549L21.0159 15.56C20.8361 16.8469 19.7569 17.7949 18.4879 17.7949H7.58639C6.25742 17.7949 5.15828 16.755 5.04837 15.408L4.12908 4.2834L2.62026 4.01807C2.22057 3.94664 1.94079 3.54864 2.01073 3.14043C2.08068 2.72305 2.47038 2.44649 2.88006 2.50874L5.2632 2.8751C5.60293 2.93735 5.85274 3.22207 5.88272 3.56905L6.07257 5.85499C6.10254 6.18257 6.36234 6.42749 6.68209 6.42749H20.1766ZM7.42631 19.4079C6.58697 19.4079 5.9075 20.1018 5.9075 20.959C5.9075 21.8061 6.58697 22.5 7.42631 22.5C8.25567 22.5 8.93514 21.8061 8.93514 20.959C8.93514 20.1018 8.25567 19.4079 7.42631 19.4079ZM18.6676 19.4079C17.8282 19.4079 17.1487 20.1018 17.1487 20.959C17.1487 21.8061 17.8282 22.5 18.6676 22.5C19.4969 22.5 20.1764 21.8061 20.1764 20.959C20.1764 20.1018 19.4969 19.4079 18.6676 19.4079Z"
          fill="white"/>
</svg>
