<svg width="18" height="18" viewBox="0 0 18 18" fill="none" xmlns="http://www.w3.org/2000/svg">
<path d="M15.75 9L18 11.25L15.1875 12.375L15.75 15.75L12.375 15.1875L11.25 18L9 15.75L6.75 18L5.625 15.1875L2.25 15.75L2.8125 12.375L0 11.25L2.25 9L0 6.75L2.8125 5.625L2.25 2.25L5.625 2.8125L6.75 0L9 2.25L11.25 0L12.375 2.8125L15.75 2.25L15.1875 5.625L18 6.75L15.75 9ZM6.1875 4.5C5.71875 4.5 5.32031 4.71973 4.99219 5.15918C4.66406 5.59863 4.5 6.12891 4.5 6.75C4.5 7.37109 4.66406 7.90137 4.99219 8.34082C5.32031 8.78027 5.71875 9 6.1875 9C6.65625 9 7.05469 8.78027 7.38281 8.34082C7.71094 7.90137 7.875 7.37109 7.875 6.75C7.875 6.12891 7.71094 5.59863 7.38281 5.15918C7.05469 4.71973 6.65625 4.5 6.1875 4.5ZM11.8125 4.5H11.25C11.2031 4.5 11.1592 4.50879 11.1182 4.52637C11.0771 4.54395 11.0449 4.55859 11.0215 4.57031C10.998 4.58203 10.9658 4.61426 10.9248 4.66699C10.8838 4.71973 10.8574 4.75488 10.8457 4.77246C10.834 4.79004 10.8076 4.83691 10.7666 4.91309C10.7256 4.98926 10.6992 5.03906 10.6875 5.0625L5.71289 12.9375C5.63086 13.0781 5.64844 13.207 5.76562 13.3242C5.88281 13.4414 6.02344 13.5 6.1875 13.5H6.75C6.79688 13.5 6.83496 13.4971 6.86426 13.4912C6.89355 13.4854 6.92578 13.4707 6.96094 13.4473C6.99609 13.4238 7.02246 13.4033 7.04004 13.3857C7.05762 13.3682 7.08105 13.3359 7.11035 13.2891C7.13965 13.2422 7.16016 13.207 7.17188 13.1836C7.18359 13.1602 7.20703 13.1191 7.24219 13.0605C7.27734 13.002 7.30078 12.9609 7.3125 12.9375L12.2871 5.0625C12.3691 4.92188 12.3516 4.79297 12.2344 4.67578C12.1172 4.55859 11.9766 4.5 11.8125 4.5ZM11.8125 9C11.3438 9 10.9453 9.21973 10.6172 9.65918C10.2891 10.0986 10.125 10.6289 10.125 11.25C10.125 11.8711 10.2891 12.4014 10.6172 12.8408C10.9453 13.2803 11.3438 13.5 11.8125 13.5C12.2812 13.5 12.6797 13.2803 13.0078 12.8408C13.3359 12.4014 13.5 11.8711 13.5 11.25C13.5 10.6289 13.3359 10.0986 13.0078 9.65918C12.6797 9.21973 12.2812 9 11.8125 9ZM11.8125 12.375C11.6602 12.375 11.5283 12.2637 11.417 12.041C11.3057 11.8184 11.25 11.5518 11.25 11.2412C11.25 10.9307 11.3057 10.667 11.417 10.4502C11.5283 10.2334 11.6602 10.125 11.8125 10.125C11.9648 10.125 12.0967 10.2334 12.208 10.4502C12.3193 10.667 12.375 10.9307 12.375 11.2412C12.375 11.5518 12.3193 11.8184 12.208 12.041C12.0967 12.2637 11.9648 12.375 11.8125 12.375ZM6.1875 7.875C6.03516 7.875 5.90332 7.76367 5.79199 7.54102C5.68066 7.31836 5.625 7.05176 5.625 6.74121C5.625 6.43066 5.68066 6.16699 5.79199 5.9502C5.90332 5.7334 6.03516 5.625 6.1875 5.625C6.33984 5.625 6.47168 5.7334 6.58301 5.9502C6.69434 6.16699 6.75 6.43066 6.75 6.74121C6.75 7.05176 6.69434 7.31836 6.58301 7.54102C6.47168 7.76367 6.33984 7.875 6.1875 7.875Z" fill="#931332"/>
</svg>
