<svg width="25" height="25" viewBox="0 0 25 25" fill="none" xmlns="http://www.w3.org/2000/svg">
<path d="M24.3952 5.12325C24.0073 4.12069 23.448 3.21218 22.7486 2.44858C22.0486 1.6827 21.2234 1.07406 20.3177 0.655771C19.3786 0.220306 18.3713 -0.00259 17.3544 2.27052e-05C15.9277 2.27052e-05 14.5358 0.436111 13.3262 1.25983C13.0368 1.45688 12.7619 1.67331 12.5014 1.90912C12.241 1.67331 11.9661 1.45688 11.6767 1.25983C10.4671 0.436111 9.07511 2.27052e-05 7.64844 2.27052e-05C6.62113 2.27052e-05 5.62564 0.219682 4.68514 0.655771C3.77647 1.07571 2.95751 1.67977 2.25431 2.44858C1.55399 3.21132 0.994552 4.12005 0.607708 5.12325C0.205463 6.16664 0 7.27462 0 8.41491C0 9.4906 0.196782 10.6115 0.587452 11.7518C0.914457 12.7047 1.38326 13.6932 1.98229 14.6914C2.93147 16.271 4.2366 17.9184 5.85715 19.5885C8.54264 22.3568 11.2021 24.2691 11.315 24.3467L12.0008 24.8377C12.3046 25.0541 12.6953 25.0541 12.9992 24.8377L13.685 24.3467C13.7979 24.2659 16.4544 22.3568 19.1428 19.5885C20.7634 17.9184 22.0685 16.271 23.0177 14.6914C23.6167 13.6932 24.0884 12.7047 24.4125 11.7518C24.8032 10.6115 25 9.4906 25 8.41491C25.0029 7.27462 24.7974 6.16664 24.3952 5.12325Z" fill="#931332"/>
</svg>
