<svg width="25" height="25" viewBox="0 0 25 25" fill="none" xmlns="http://www.w3.org/2000/svg">
<path d="M22.3795 2.78588L22.3798 2.78629C23.0355 3.50211 23.5623 4.35657 23.9286 5.30311C24.3085 6.28834 24.5027 7.33488 24.5 8.41364V8.41491C24.5 9.42947 24.3144 10.4956 23.9395 11.5897L23.9391 11.5908C23.6284 12.5044 23.1732 13.4605 22.5891 14.4338C21.6641 15.9732 20.3847 17.5906 18.784 19.2403C16.1257 21.9776 13.4966 23.8667 13.3941 23.9401L13.394 23.9401L12.7091 24.4304C12.709 24.4305 12.7089 24.4306 12.7088 24.4306C12.5787 24.5231 12.4212 24.5231 12.2912 24.4306C12.2911 24.4306 12.291 24.4305 12.2909 24.4304L11.606 23.9401L11.6061 23.94L11.5981 23.9345C11.5982 23.9347 11.5973 23.934 11.595 23.9324L11.5863 23.9263L11.5565 23.905C11.5316 23.887 11.4972 23.8621 11.4539 23.8304C11.3674 23.7669 11.2461 23.6767 11.0947 23.5617C10.7921 23.3317 10.3702 23.0028 9.86824 22.5903C8.8637 21.7648 7.54225 20.6075 6.21604 19.2403L6.21598 19.2403C4.61531 17.5907 3.33599 15.9733 2.41101 14.4341C1.82739 13.4616 1.37453 12.5049 1.06046 11.5897C0.685613 10.4956 0.5 9.42947 0.5 8.41491C0.5 7.33531 0.694409 6.28837 1.07423 5.30315C1.43941 4.3561 1.96628 3.50158 2.62261 2.78674L2.62325 2.78604C3.28353 2.06416 4.04898 1.50058 4.8949 1.10965L4.89547 1.10938C5.7704 0.703695 6.69415 0.500023 7.64844 0.500023C8.97173 0.500023 10.2661 0.904186 11.3953 1.67311L11.3953 1.67312C11.6656 1.85717 11.9224 2.05935 12.1658 2.27977L12.5014 2.58361L12.837 2.27977C13.0805 2.05935 13.3373 1.85717 13.6076 1.67312L13.6076 1.67311C14.7368 0.904185 16.0311 0.500023 17.3544 0.500024L17.3557 0.500021C18.2982 0.4976 19.2333 0.704087 20.1074 1.10938L20.1081 1.10969C20.9509 1.49899 21.7226 2.06709 22.3795 2.78588Z" stroke="#931332"/>
</svg>
