<svg width="22" height="23" viewBox="0 0 22 23" fill="none" xmlns="http://www.w3.org/2000/svg">
    <path fill-rule="evenodd" clip-rule="evenodd"
          d="M12.2222 8.30556H18.3333V5.75H12.2222V8.30556ZM12.2222 17.25H18.3333V14.6944H12.2222V17.25ZM19.5556 23H2.44444C1.1 23 0 21.85 0 20.4444V2.55556C0 1.15 1.1 0 2.44444 0H19.5556C20.9 0 22 1.15 22 2.55556V20.4444C22 21.85 20.9 23 19.5556 23ZM3.66667 10.2222H9.77778V3.83333H3.66667V10.2222ZM4.88889 5.11111H8.55556V8.94444H4.88889V5.11111ZM3.66667 19.1667H9.77778V12.7778H3.66667V19.1667ZM4.88889 14.0556H8.55556V17.8889H4.88889V14.0556Z"
          fill="#931332"/>
</svg>
