<svg width="13" height="19" viewBox="0 0 13 19" fill="none" xmlns="http://www.w3.org/2000/svg">
    <path d="M6.5 0C2.90643 0 0 2.9735 0 6.65C0 11.6375 6.5 19 6.5 19C6.5 19 13 11.6375 13 6.65C13 2.9735 10.0936 0 6.5 0ZM6.5 9.025C5.88432 9.025 5.29385 8.77478 4.8585 8.32938C4.42315 7.88398 4.17857 7.27989 4.17857 6.65C4.17857 6.02011 4.42315 5.41602 4.8585 4.97062C5.29385 4.52522 5.88432 4.275 6.5 4.275C7.11568 4.275 7.70615 4.52522 8.1415 4.97062C8.57685 5.41602 8.82143 6.02011 8.82143 6.65C8.82143 7.27989 8.57685 7.88398 8.1415 8.32938C7.70615 8.77478 7.11568 9.025 6.5 9.025Z"
          fill="#931332"/>
</svg>
