<svg width="32" height="23" viewBox="0 0 32 23" fill="none" xmlns="http://www.w3.org/2000/svg">
    <path d="M2 17.3158H9L7.878 20.5065C7.77789 20.7913 7.75061 21.0945 7.79843 21.3912C7.84624 21.6879 7.96778 21.9696 8.15302 22.2131C8.33827 22.4566 8.58192 22.6549 8.86392 22.7917C9.14591 22.9285 9.45818 22.9999 9.775 23H10L15 17.8482V5H4L0.063 13.1938L0 13.4714V15.4211C0 15.9236 0.210714 16.4055 0.585786 16.7608C0.960859 17.1162 1.46957 17.3158 2 17.3158Z"
          fill="#931332"/>
    <path d="M30 5.68421L23 5.68421L24.122 2.49347C24.2221 2.20871 24.2494 1.90548 24.2016 1.60878C24.1538 1.31207 24.0322 1.03037 23.847 0.786879C23.6617 0.543387 23.4181 0.345071 23.1361 0.208264C22.8541 0.0714576 22.5418 7.70519e-05 22.225 -1.124e-06L22 -1.10597e-06L17 5.15179L17 18L28 18L31.937 9.80621L32 9.52863L32 7.57895C32 7.07643 31.7893 6.5945 31.4142 6.23917C31.0391 5.88383 30.5304 5.68421 30 5.68421Z"
          fill="#931332"/>
</svg>
