<svg width="19" height="19" viewBox="0 0 19 19" fill="none" xmlns="http://www.w3.org/2000/svg">
    <path d="M9.5 0C4.35005 0 0 4.35005 0 9.5C0 14.65 4.35005 19 9.5 19C14.65 19 19 14.65 19 9.5C19 4.35005 14.65 0 9.5 0ZM9.5 4.75C11.1406 4.75 12.35 5.9584 12.35 7.6C12.35 9.2416 11.1406 10.45 9.5 10.45C7.8603 10.45 6.65 9.2416 6.65 7.6C6.65 5.9584 7.8603 4.75 9.5 4.75ZM4.6493 14.0334C5.50145 12.7794 6.92265 11.9434 8.55 11.9434H10.45C12.0783 11.9434 13.4986 12.7794 14.3507 14.0334C13.1366 15.333 11.4143 16.15 9.5 16.15C7.58575 16.15 5.8634 15.333 4.6493 14.0334Z"
          fill="#9E9E9E"/>
</svg>
