<svg width="25" height="25" viewBox="0 0 25 25" fill="none" xmlns="http://www.w3.org/2000/svg">
    <path d="M12.5 0C5.72375 0 0 5.72375 0 12.5C0 19.2763 5.72375 25 12.5 25C19.2763 25 25 19.2763 25 12.5C25 5.72375 19.2763 0 12.5 0ZM12.5 6.25C14.6587 6.25 16.25 7.84 16.25 10C16.25 12.16 14.6587 13.75 12.5 13.75C10.3425 13.75 8.75 12.16 8.75 10C8.75 7.84 10.3425 6.25 12.5 6.25ZM6.1175 18.465C7.23875 16.815 9.10875 15.715 11.25 15.715H13.75C15.8925 15.715 17.7612 16.815 18.8825 18.465C17.285 20.175 15.0188 21.25 12.5 21.25C9.98125 21.25 7.715 20.175 6.1175 18.465Z"
          fill="#931332"/>
</svg>
