<svg width="31" height="30" viewBox="0 0 31 30" fill="none" xmlns="http://www.w3.org/2000/svg">
    <path d="M30.57 12.72L27.22 11.72C26.9884 10.9113 26.6698 10.1301 26.27 9.39L27.91 6.32C27.9715 6.20412 27.994 6.07148 27.9742 5.94178C27.9544 5.81208 27.8933 5.69222 27.8 5.6L25.41 3.2C25.3177 3.10667 25.1979 3.04556 25.0682 3.02575C24.9385 3.00593 24.8059 3.02846 24.69 3.09L21.64 4.72C20.8926 4.30066 20.1011 3.96529 19.28 3.72L18.28 0.410001C18.2377 0.288017 18.1578 0.182599 18.0517 0.108922C17.9457 0.0352452 17.819 -0.00289183 17.69 5.80854e-07H14.31C14.1801 0.000605155 14.0538 0.0426351 13.9495 0.119974C13.8452 0.197312 13.7683 0.305924 13.73 0.430001L12.73 3.73C11.902 3.97398 11.1037 4.30938 10.35 4.73L7.34997 3.11C7.23409 3.04846 7.10145 3.02593 6.97175 3.04575C6.84205 3.06556 6.72219 3.12667 6.62997 3.22L4.19997 5.59C4.10664 5.68222 4.04553 5.80208 4.02572 5.93178C4.0059 6.06148 4.02843 6.19412 4.08997 6.31L5.70997 9.31C5.29003 10.0606 4.95464 10.8555 4.70997 11.68L1.39997 12.68C1.27589 12.7183 1.16728 12.7952 1.08994 12.8996C1.01261 13.0039 0.970575 13.1301 0.969971 13.26V16.64C0.970575 16.7699 1.01261 16.8961 1.08994 17.0005C1.16728 17.1048 1.27589 17.1817 1.39997 17.22L4.72997 18.22C4.97732 19.0308 5.31265 19.8121 5.72997 20.55L4.08997 23.69C4.02843 23.8059 4.0059 23.9385 4.02572 24.0682C4.04553 24.1979 4.10664 24.3178 4.19997 24.41L6.58997 26.8C6.68219 26.8933 6.80205 26.9544 6.93175 26.9743C7.06145 26.9941 7.19409 26.9715 7.30997 26.91L10.4 25.26C11.1309 25.6544 11.902 25.9696 12.7 26.2L13.7 29.57C13.7383 29.6941 13.8152 29.8027 13.9195 29.88C14.0238 29.9574 14.1501 29.9994 14.28 30H17.66C17.7898 29.9994 17.9161 29.9574 18.0204 29.88C18.1247 29.8027 18.2017 29.6941 18.24 29.57L19.24 26.19C20.0311 25.9584 20.7954 25.6433 21.52 25.25L24.63 26.91C24.7459 26.9715 24.8785 26.9941 25.0082 26.9743C25.1379 26.9544 25.2577 26.8933 25.35 26.8L27.74 24.41C27.8333 24.3178 27.8944 24.1979 27.9142 24.0682C27.934 23.9385 27.9115 23.8059 27.85 23.69L26.19 20.59C26.5873 19.8627 26.9058 19.095 27.14 18.3L30.51 17.3C30.634 17.2617 30.7427 17.1848 30.82 17.0805C30.8973 16.9761 30.9394 16.8499 30.94 16.72V13.31C30.9459 13.1857 30.9136 13.0625 30.8474 12.957C30.7813 12.8515 30.6845 12.7688 30.57 12.72ZM16 20.5C14.9122 20.5 13.8488 20.1774 12.9443 19.5731C12.0399 18.9687 11.3349 18.1098 10.9186 17.1048C10.5024 16.0998 10.3934 14.9939 10.6057 13.927C10.8179 12.8601 11.3417 11.8801 12.1109 11.1109C12.8801 10.3417 13.8601 9.8179 14.927 9.60568C15.9939 9.39346 17.0997 9.50238 18.1047 9.91866C19.1097 10.3349 19.9687 11.0399 20.5731 11.9444C21.1774 12.8488 21.5 13.9122 21.5 15C21.5 16.4587 20.9205 17.8576 19.8891 18.8891C18.8576 19.9205 17.4587 20.5 16 20.5Z"
          fill="#E6E6E6"/>
</svg>
