<svg width="41" height="42" viewBox="0 0 41 42" fill="none" xmlns="http://www.w3.org/2000/svg">
    <path d="M39 21C39 31.5391 30.6721 40 20.5 40C10.3279 40 2 31.5391 2 21C2 10.4609 10.3279 2 20.5 2C30.6721 2 39 10.4609 39 21Z"
          fill="none" stroke="#931332" stroke-width="4"/>
    <path d="M29.5161 16.6887C29.2058 15.9669 28.7584 15.3128 28.1988 14.763C27.6389 14.2115 26.9787 13.7733 26.2542 13.4722C25.5029 13.1586 24.6971 12.9981 23.8835 13C22.7422 13 21.6286 13.314 20.6609 13.9071C20.4294 14.049 20.2095 14.2048 20.0011 14.3746C19.7928 14.2048 19.5729 14.049 19.3413 13.9071C18.3736 13.314 17.2601 13 16.1188 13C15.2969 13 14.5005 13.1582 13.7481 13.4722C13.0212 13.7745 12.366 14.2094 11.8034 14.763C11.2432 15.3122 10.7956 15.9664 10.4862 16.6887C10.1644 17.44 10 18.2377 10 19.0587C10 19.8332 10.1574 20.6403 10.47 21.4613C10.7316 22.1474 11.1066 22.8591 11.5858 23.5778C12.3452 24.7151 13.3893 25.9013 14.6857 27.1037C16.8341 29.0969 18.9617 30.4738 19.052 30.5296L19.6006 30.8831C19.8437 31.039 20.1563 31.039 20.3993 30.8831L20.948 30.5296C21.0383 30.4715 23.1635 29.0969 25.3143 27.1037C26.6107 25.9013 27.6548 24.7151 28.4141 23.5778C28.8934 22.8591 29.2707 22.1474 29.53 21.4613C29.8426 20.6403 30 19.8332 30 19.0587C30.0023 18.2377 29.8379 17.44 29.5161 16.6887Z"
          fill="#931332"/>
</svg>
