<svg width="41" height="42" viewBox="0 0 41 42" fill="none" xmlns="http://www.w3.org/2000/svg">
    <path d="M39 21C39 31.5391 30.6721 40 20.5 40C10.3279 40 2 31.5391 2 21C2 10.4609 10.3279 2 20.5 2C30.6721 2 39 10.4609 39 21Z"
          fill="none" stroke="#931332" stroke-width="4"/>
    <path d="M11.356 23.438L11.59 25.67H11.662L11.914 23.402L14.11 16.4H15.73L17.89 23.438L18.142 25.67H18.214L18.484 23.402L20.014 16.4H22.516L19.042 29.09H17.386L15.136 22.088L14.83 20.162H14.74L14.434 22.106L12.202 29.09H10.456L7 16.4H9.682L11.356 23.438ZM30.4415 16.4H32.7815V24.536C32.7815 25.352 32.6735 26.054 32.4575 26.642C32.2415 27.23 31.9415 27.716 31.5575 28.1C31.1735 28.484 30.7055 28.766 30.1535 28.946C29.6015 29.126 28.9955 29.216 28.3355 29.216C25.1435 29.216 23.5475 27.758 23.5475 24.842V16.4H26.0135V24.356C26.0135 24.848 26.0555 25.268 26.1395 25.616C26.2355 25.952 26.3795 26.228 26.5715 26.444C26.7635 26.648 27.0035 26.798 27.2915 26.894C27.5795 26.978 27.9155 27.02 28.2995 27.02C29.0555 27.02 29.6015 26.81 29.9375 26.39C30.2735 25.97 30.4415 25.292 30.4415 24.356V16.4Z"
          fill="#931332"/>
</svg>
